<mxfile host="app.diagrams.net" modified="2024-05-12T19:45:06.741Z" agent="Mozilla/5.0 (Windows NT 10.0; Win64; x64) AppleWebKit/537.36 (KHTML, like Gecko) Chrome/124.0.0.0 Safari/537.36" etag="7KOSMGbaxtqMqd0rQU17" version="24.4.0" type="device">
  <diagram name="Página-1" id="QySwyygO_b-BWq749q9A">
    <mxGraphModel dx="810" dy="467" grid="1" gridSize="10" guides="1" tooltips="1" connect="1" arrows="1" fold="1" page="1" pageScale="1" pageWidth="827" pageHeight="1169" math="0" shadow="0">
      <root>
        <mxCell id="0" />
        <mxCell id="1" parent="0" />
        <mxCell id="Zs1yTxWDqAdmQXKdZYzv-5" style="edgeStyle=orthogonalEdgeStyle;rounded=0;orthogonalLoop=1;jettySize=auto;html=1;" edge="1" parent="1" source="Zs1yTxWDqAdmQXKdZYzv-1" target="Zs1yTxWDqAdmQXKdZYzv-2">
          <mxGeometry relative="1" as="geometry" />
        </mxCell>
        <mxCell id="Zs1yTxWDqAdmQXKdZYzv-6" style="edgeStyle=orthogonalEdgeStyle;rounded=0;orthogonalLoop=1;jettySize=auto;html=1;entryX=0.5;entryY=0;entryDx=0;entryDy=0;" edge="1" parent="1" source="Zs1yTxWDqAdmQXKdZYzv-1" target="Zs1yTxWDqAdmQXKdZYzv-3">
          <mxGeometry relative="1" as="geometry" />
        </mxCell>
        <mxCell id="Zs1yTxWDqAdmQXKdZYzv-7" style="edgeStyle=orthogonalEdgeStyle;rounded=0;orthogonalLoop=1;jettySize=auto;html=1;" edge="1" parent="1" source="Zs1yTxWDqAdmQXKdZYzv-1" target="Zs1yTxWDqAdmQXKdZYzv-4">
          <mxGeometry relative="1" as="geometry" />
        </mxCell>
        <mxCell id="Zs1yTxWDqAdmQXKdZYzv-1" value="&lt;div style=&quot;text-align: center;&quot;&gt;&lt;span style=&quot;background-color: initial;&quot;&gt;game&lt;/span&gt;&lt;/div&gt;&lt;div&gt;&lt;ul&gt;&lt;li&gt;mostrar criptgramas&lt;/li&gt;&lt;li&gt;mostrar letras&lt;/li&gt;&lt;li&gt;passar de fase&lt;/li&gt;&lt;/ul&gt;&lt;/div&gt;" style="rounded=0;whiteSpace=wrap;html=1;align=left;" vertex="1" parent="1">
          <mxGeometry x="337" y="30" width="170" height="90" as="geometry" />
        </mxCell>
        <mxCell id="Zs1yTxWDqAdmQXKdZYzv-2" value="&lt;div style=&quot;text-align: center;&quot;&gt;&lt;span style=&quot;background-color: initial;&quot;&gt;criptograma&lt;/span&gt;&lt;/div&gt;&lt;div&gt;&lt;ul&gt;&lt;li&gt;cena pra mostrar gaps pra completar com infos&lt;/li&gt;&lt;/ul&gt;&lt;/div&gt;" style="rounded=0;whiteSpace=wrap;html=1;align=left;" vertex="1" parent="1">
          <mxGeometry x="89" y="160" width="200" height="90" as="geometry" />
        </mxCell>
        <mxCell id="Zs1yTxWDqAdmQXKdZYzv-3" value="Gaps&lt;div&gt;&lt;ul&gt;&lt;li&gt;espaços que precisam ser completados por uma letra específica&lt;/li&gt;&lt;/ul&gt;&lt;/div&gt;" style="whiteSpace=wrap;html=1;align=center;" vertex="1" parent="1">
          <mxGeometry x="317" y="160" width="210" height="90" as="geometry" />
        </mxCell>
        <mxCell id="Zs1yTxWDqAdmQXKdZYzv-4" value="&lt;div style=&quot;text-align: center;&quot;&gt;&lt;span style=&quot;background-color: initial;&quot;&gt;Letras&lt;/span&gt;&lt;/div&gt;&lt;div&gt;&lt;ul&gt;&lt;li&gt;Datas de informação que registram qual letra é&lt;/li&gt;&lt;/ul&gt;&lt;/div&gt;" style="whiteSpace=wrap;html=1;align=left;" vertex="1" parent="1">
          <mxGeometry x="549" y="160" width="190" height="80" as="geometry" />
        </mxCell>
        <mxCell id="Zs1yTxWDqAdmQXKdZYzv-8" value="letra&lt;div&gt;letra: string&lt;br&gt;&lt;div&gt;- id: int&lt;/div&gt;&lt;/div&gt;" style="rounded=0;whiteSpace=wrap;html=1;" vertex="1" parent="1">
          <mxGeometry x="570" y="290" width="120" height="60" as="geometry" />
        </mxCell>
      </root>
    </mxGraphModel>
  </diagram>
</mxfile>
